# xmcd
#
# Track frame offsets:
#	150
#	10962
#	22828
#	34137
#	43916
#	58492
#	69745
#
# Disc length: 1041 seconds
# Revision: 1
# Processed by: cddbd v1.5.2PL0 Copyright (c) Steve Scherf et al.
# Submitted via: dBpowerAMP V12.0
#
DISCID=5f040f07
DTITLE=Sandy Posey - Country Ladies
DYEAR=2006
DGENRE=Country
TTITLE0=Single Girl
TTITLE1=Bring Him Safely Home To Me
TTITLE2=I Take It Back
TTITLE3=What A Woman Won't Do
TTITLE4=Put Your Hand In The Hand
TTITLE5=I Will Follow Him
TTITLE6=Born A Woman
EXTD=
EXTT0=
EXTT1=
EXTT2=
EXTT3=
EXTT4=
EXTT5=
EXTT6=
PLAYORDER=
